#!OML:ASF I:\Actors\actors\Patient Classification 1\Patient 1\Session 1\Subject1.ASF
:FULLY-SPECIFIED
:DEGREES
1121
root 0.674693 17.5289 9.554 8.76046 -1.08706 -9.64483
lowerback 6.79318 1.46734 8.26935
upperback -3.53405 2.85194 0.866298
thorax -7.21775 1.02031 -4.08324
lowerneck -19.2819 -3.69995 -2.11347
upperneck 34.7363 -7.36683 6.65368
head 15.9558 -2.40618 1.81584
rclavicle -2.05742e-014 1.39149e-014
rhumerus -68.8819 12.2508 -92.3726
rradius 105.906
rwrist -30.2151
rhand 35.4183 -23.0675
rfingers 7.12502
rthumb 58.501 321.669
lclavicle -2.05742e-014 1.39149e-014
lhumerus -72.4458 -17.7642 94.2419
lradius 100.915
lwrist 52.2822
lhand -18.1541 -19.8837
lfingers 7.12502
lthumb 8.12156 9.94018
rfemur -4.43951 20.7669 27.1313
rtibia 5.09129
rfoot -14.4564 -24.5934
rtoes 8.17533
lfemur 1.90952 -30.4604 -8.73685
ltibia -1.23496
lfoot -12.3795 38.6695
ltoes -2.82582
1122
root 0.670251 17.5289 9.57029 8.9039 -0.815881 -9.69024
lowerback 6.65338 1.43558 8.28599
upperback -3.68332 2.80874 0.904467
thorax -7.30518 0.991645 -4.04429
lowerneck -19.2615 -3.74084 -2.26031
upperneck 34.2512 -7.40297 6.85023
head 15.7332 -2.42483 1.90712
rclavicle -3.27001e-014 -3.97569e-015
rhumerus -68.9017 10.5237 -91.3872
rradius 103.241
rwrist -30.4933
rhand 37.7174 -22.9935
rfingers 7.12502
rthumb 60.4775 323.737
lclavicle -3.27001e-014 -3.97569e-015
lhumerus -72.1875 -16.4194 93.9252
lradius 98.8735
lwrist 50.5602
lhand -18.6537 -19.8672
lfingers 7.12502
lthumb 7.63945 9.97478
rfemur -4.51081 20.7741 27.1788
rtibia 5.08613
rfoot -14.6403 -24.7088
rtoes 8.66798
lfemur 1.76098 -30.55 -8.52323
ltibia -1.37699
lfoot -12.2079 38.518
ltoes -3.11304
1123
root 0.666621 17.5375 9.58899 8.86025 -0.486726 -9.71771
lowerback 6.75892 1.33808 8.32088
upperback -3.84117 2.70426 0.925837
thorax -7.55149 0.923883 -4.03613
lowerneck -19.2652 -3.74987 -2.31677
upperneck 33.7955 -7.40275 6.98199
head 15.5234 -2.4244 1.9615
rclavicle -1.38652e-014 1.86858e-014
rhumerus -68.9065 8.97 -90.5085
rradius 100.336
rwrist -30.4283
rhand 39.8654 -22.4309
rfingers 7.12502
rthumb 62.2835 326.433
lclavicle -1.38652e-014 1.86858e-014
lhumerus -72.0493 -15.2052 93.6336
lradius 96.9641
lwrist 49.3097
lhand -19.3633 -19.9533
lfingers 7.12502
lthumb 6.95443 9.91242
rfemur -4.29042 20.839 27.3196
rtibia 4.98138
rfoot -14.8199 -24.9457
rtoes 9.06623
lfemur 1.80831 -30.3689 -8.39496
ltibia -1.49079
lfoot -11.8307 38.0148
ltoes -4.01121
1124
root 0.665139 17.558 9.61473 8.38403 -0.368506 -9.794
lowerback 7.30046 1.26441 8.40421
upperback -3.91475 2.67706 0.943405
thorax -7.94969 0.885974 -4.08319
lowerneck -19.2107 -3.78176 -2.35798
upperneck 33.3369 -7.43422 7.09252
head 15.3019 -2.44019 1.99827
rclavicle 2.5842e-015 -7.55382e-015
rhumerus -68.9243 7.58439 -89.8028
rradius 97.0829
rwrist -29.779
rhand 41.4845 -20.0847
rfingers 7.12502
rthumb 63.6137 330.587
lclavicle 2.5842e-015 -7.55382e-015
lhumerus -72.0084 -14.1221 93.4065
lradius 94.6985
lwrist 47.8768
lhand -19.2073 -21.8208
lfingers 7.12502
lthumb 7.10508 8.03997
rfemur -3.50765 20.8784 27.6903
rtibia 4.78649
rfoot -14.807 -25.0569
rtoes 8.90522
lfemur 2.64938 -30.2572 -8.65545
ltibia -1.75541
lfoot -11.5513 37.7285
ltoes -4.84002
1125
root 0.658905 17.5525 9.61884 8.78599 0.256005 -9.82666
lowerback 7.01403 1.13176 8.42841
upperback -4.24289 2.49743 1.00073
thorax -8.1665 0.780499 -4.00735
lowerneck -19.154 -3.87592 -2.61222
upperneck 32.8451 -7.54026 7.37262
head 15.0927 -2.4917 2.12843
rclavicle 1.1455e-014 2.90226e-014
rhumerus -68.6869 6.1981 -88.6254
rradius 94.2468
rwrist -30.8279
rhand 44.4239 -21.4515
rfingers 7.12502
rthumb 65.9449 333.028
lclavicle 1.1455e-014 2.90226e-014
lhumerus -71.7532 -13.0858 93.106
lradius 93.0759
lwrist 47.0682
lhand -19.781 -19.5831
lfingers 7.12502
lthumb 6.55125 10.2955
rfemur -3.95456 20.824 27.5425
rtibia 4.75245
rfoot -14.9282 -25.323
rtoes 9.47776
lfemur 1.79257 -30.335 -8.06896
ltibia -1.61893
lfoot -11.2382 37.2967
ltoes -5.52858
1126
root 0.656653 17.5548 9.63736 8.89482 0.526223 -9.88041
lowerback 6.78976 1.09516 8.41531
upperback -4.40609 2.44059 1.08856
thorax -8.22533 0.749666 -3.89366
lowerneck -19.1441 -3.93444 -2.88082
upperneck 32.3548 -7.58277 7.64382
head 14.8937 -2.51778 2.2678
rclavicle 8.27441e-015 -4.41302e-014
rhumerus -68.318 4.94882 -87.3511
rradius 91.5672
rwrist -32.2035
rhand 47.633 -24.2495
rfingers 7.12502
rthumb 68.3313 335.328
lclavicle 8.27441e-015 -4.41302e-014
lhumerus -71.3028 -12.0481 92.762
lradius 90.978
lwrist 46.3968
lhand -19.2383 -18.9037
lfingers 7.12502
lthumb 7.07513 10.9581
rfemur -3.968 20.6354 27.5207
rtibia 4.67529
rfoot -14.9936 -25.0346
rtoes 9.76194
lfemur 1.78132 -30.8499 -7.9593
ltibia -1.8106
lfoot -11.4133 37.5065
ltoes -4.94178
1127
root 0.653686 17.5571 9.64421 8.98186 0.66966 -9.78606
lowerback 6.75318 1.07022 8.17157
upperback -4.60172 2.39645 1.16574
thorax -8.4332 0.730706 -3.6713
lowerneck -19.099 -3.95012 -2.9292
upperneck 31.8363 -7.52356 7.6033
head 14.6401 -2.51809 2.25678
rclavicle -1.8487e-014 1.07344e-014
rhumerus -67.8912 3.87096 -86.1653
rradius 88.8208
rwrist -33.2155
rhand 50.7301 -26.127
rfingers 7.12502
rthumb 70.4221 339.534
lclavicle -1.8487e-014 1.07344e-014
lhumerus -70.7433 -10.9901 92.363
lradius 88.5309
lwrist 45.6871
lhand -18.7953 -19.2677
lfingers 7.12502
lthumb 7.50277 10.5792
rfemur -4.03026 20.6418 27.2924
rtibia 4.64346
rfoot -14.8991 -24.8025
rtoes 9.29739
lfemur 1.75397 -31.508 -8.02766
ltibia -1.94817
lfoot -11.8412 37.9185
ltoes -3.79302
1128
root 0.649976 17.5582 9.63401 8.89379 0.487155 -9.37722
lowerback 7.19582 1.11943 7.49721
upperback -4.79903 2.44856 1.19664
thorax -8.92296 0.772226 -3.28687
lowerneck -19.0203 -3.96607 -2.96594
upperneck 31.2504 -7.41882 7.43739
head 14.3413 -2.5171 2.20004
rclavicle -8.29926e-015 1.07344e-014
rhumerus -67.362 2.98669 -85.0407
rradius 85.9889
rwrist -33.7495
rhand 53.6654 -25.9413
rfingers 7.12502
rthumb 72.1436 346.75
lclavicle -8.29926e-015 1.07344e-014
lhumerus -70.0699 -9.91349 92.0175
lradius 85.9259
lwrist 45.1324
lhand -19.3002 -19.6513
lfingers 7.12502
lthumb 7.0154 10.2125
rfemur -4.06271 20.9523 26.6803
rtibia 4.74979
rfoot -14.7023 -24.599
rtoes 8.83862
lfemur 2.07156 -32.4599 -8.68021
ltibia -2.11291
lfoot -12.4574 38.8128
ltoes -2.27438
1129
root 0.648613 17.5631 9.66977 9.10407 1.10006 -10.2054
lowerback 6.52116 0.977952 8.3329
upperback -4.96709 2.32103 1.56124
thorax -8.72129 0.676939 -3.32605
lowerneck -19.005 -3.96897 -3.05226
upperneck 30.7149 -7.29719 7.3083
head 14.0872 -2.5061 2.17197
rclavicle 1.12313e-014 -1.43125e-014
rhumerus -66.7374 2.24712 -83.9766
rradius 83.2146
rwrist -33.9982
rhand 56.5523 -25.7059
rfingers 7.12502
rthumb 73.511 355.228
lclavicle 1.12313e-014 -1.43125e-014
lhumerus -69.3183 -8.79027 91.643
lradius 83.228
lwrist 44.8793
lhand -19.8778 -19.5957
lfingers 7.12502
lthumb 6.45775 10.2858
rfemur -3.95952 20.5082 27.6226
rtibia 4.44817
rfoot -14.2961 -24.1737
rtoes 7.66036
lfemur 2.04257 -32.7504 -7.57224
ltibia -2.55628
lfoot -12.3465 38.7267
ltoes -2.2252
